<svg width="24" height="24" viewBox="0 0 24 24" fill="none" xmlns="http://www.w3.org/2000/svg">
<path d="M13.414 10.586L13.894 11.072L14.359 11.557L14.818 12.049C18.276 15.813 20.29 19.267 19.425 20.132C19.025 20.532 18.069 20.316 16.785 19.625C15.2035 20.6166 13.3529 21.0923 11.4892 20.9862C9.62554 20.8802 7.84086 20.1976 6.38203 19.033L9.36203 16.053C9.78076 16.165 10.2245 16.1379 10.6266 15.9759C11.0286 15.8138 11.3671 15.5255 11.591 15.1544C11.815 14.7834 11.9124 14.3495 11.8685 13.9183C11.8246 13.4871 11.6418 13.0818 11.3476 12.7635C11.0534 12.4452 10.6638 12.231 10.2374 12.1533C9.81094 12.0756 9.37081 12.1385 8.98324 12.3326C8.59567 12.5267 8.28165 12.8415 8.08845 13.2295C7.89526 13.6175 7.83334 14.0577 7.91203 14.484L7.94703 14.639L4.96803 17.619C3.80308 16.1599 3.12036 14.3749 3.0143 12.5108C2.90825 10.6467 3.3841 8.79579 4.37603 7.21399C3.68403 5.93099 3.46803 4.97599 3.86803 4.57499C4.84503 3.59899 9.11803 6.28999 13.414 10.585V10.586ZM19.778 4.22199C19.977 4.42083 20.1317 4.6594 20.2322 4.92212C20.3327 5.18484 20.3767 5.4658 20.3612 5.74665C20.3457 6.0275 20.2712 6.30193 20.1424 6.55202C20.0137 6.8021 19.8336 7.02222 19.614 7.19799C20.4032 8.45131 20.8714 9.87976 20.9773 11.357C21.0831 12.8343 20.8234 14.315 20.221 15.668C19.032 13.714 17.151 11.494 14.828 9.17199L14.291 8.63999C12.163 6.56099 10.135 4.87599 8.33303 3.77999C9.68621 3.17744 11.167 2.91761 12.6445 3.02348C14.122 3.12936 15.5506 3.59766 16.804 4.38699C16.9797 4.16765 17.1997 3.9878 17.4495 3.85917C17.6994 3.73054 17.9736 3.65601 18.2542 3.64044C18.5348 3.62487 18.8155 3.66862 19.0781 3.76882C19.3406 3.86902 19.5791 4.02344 19.778 4.22199V4.22199Z" fill="#1F63E8"/>
</svg>
